<?xml version="1.0" encoding="iso-8859-1"?>
<!-- Uploaded to: SVG Repo, www.svgrepo.com, Generator: SVG Repo Mixer Tools -->
<svg fill="#000000" height="800px" width="800px" version="1.1" id="Layer_1" xmlns="http://www.w3.org/2000/svg" xmlns:xlink="http://www.w3.org/1999/xlink" 
	 viewBox="0 0 512 512" xml:space="preserve">
<g>
	<g>
		<path d="M342.06,0c-18.92,0-36.512,19.964-51.177,54.204c3.716,9.896,7.221,20.591,10.492,32.095
			c18.322,64.445,28.413,149.531,28.413,239.584c0,40.274-2.071,80.055-6.039,117.498l103.046,14.398
			c5.084-40.328,7.918-84.94,7.918-131.895C434.712,145.903,393.23,0,342.06,0z"/>
	</g>
</g>
<g>
	<g>
		<path d="M203.681,0c-51.171,0-92.654,145.903-92.654,325.883c0,34.951,1.571,68.603,4.468,100.161
			c12.082-3.458,24.637-5.245,37.235-5.245c12.681,0,8.219-0.165,137.879,17.952c3.694-35.172,5.725-73.179,5.725-112.867
			C296.335,145.903,254.853,0,203.681,0z"/>
	</g>
</g>
<g>
	<g>
		<path d="M462.667,496.57c-323.243-45.165-299.898-42.317-309.936-42.317c-16.722,0-33.266,4.124-48.128,12.102L46.74,497.419
			c-3.13,1.68-4.718,5.275-3.852,8.72S46.852,512,50.406,512h411.188c4.072,0,7.451-3.151,7.733-7.214
			C469.611,500.723,466.7,497.134,462.667,496.57z"/>
	</g>
</g>
</svg>